<svg width="837.4375244140625px" height="108.8px" xmlns="http://www.w3.org/2000/svg" viewBox="-168.71876220703126 20.6 837.4375244140625 108.8" style="background: none;" preserveAspectRatio="xMidYMid"><defs><linearGradient id="editing-shiny-gradient" x1="0.8596699001693255" x2="0.14033009983067446" y1="0.8473291852294986" y2="0.15267081477050132" gradientUnits="objectBoundingBox"><stop offset="0.0" stop-color="#1c01ff"></stop><stop offset="0.5" stop-color="#ff0000"></stop><stop offset="1.0" stop-color="#ed1f1f"></stop></linearGradient><linearGradient id="editing-shiny-gradient2" x1="0" x2="0" y1="0" y2="1"><stop offset="0.2" stop-color="#fff" stop-opacity="0.8"></stop><stop offset="0.8" stop-color="#fff" stop-opacity="0"></stop></linearGradient><filter id="editing-shiny2" x="-100%" y="-100%" width="300%" height="300%"><feMorphology operator="erode" radius="2"></feMorphology></filter><filter id="editing-shiny" x="-100%" y="-100%" width="300%" height="300%"><feFlood flood-color="" result="flood"></feFlood><feConvolveMatrix in="SourceGraphic" result="conv" order="8,8" divisor="1" kernelMatrix="0 0 0 0 0 0 0 0 0 0 0 1 1 0 0 0 0 0 0 1 1 0 0 0 0 0 1 0 0 1 0 0 0 0 1 0 0 1 0 0 0 1 0 0 0 0 1 0 0 1 1 0 0 1 1 0 0 0 0 1 1 0 0 0 "></feConvolveMatrix><feOffset dx="0" dy="4" in="conv" result="offset"></feOffset><feComposite operator="in" in="flood" in2="offset" result="comp"></feComposite><feGaussianBlur in="offset" stdDeviation="3" result="shadow"></feGaussianBlur><feColorMatrix in="shadow" type="matrix" values="0.7 0 0 0 0  0 0.7 0 0 0  0 0 0.7 0 0  0 0 0 0.3 0" result="dark-shadow"></feColorMatrix><feOffset dx="0" dy="4" in="dark-shadow" result="offset-shadow"></feOffset><feOffset dx="0" dy="2" in="conv" result="offset-2"></feOffset><feComposite operator="out" in="offset" in2="offset-2" result="edge-diff"></feComposite><feGaussianBlur in="edge-diff" stdDeviation="1" result="edge-blur"></feGaussianBlur><feColorMatrix in="edge-blur" result="edge-shadow" type="matrix" values="0 0 0 0 0  0 0 0 0 0  0 0 0 0 0  0 0 0 0.5 0"></feColorMatrix><feComposite operator="in" in="edge-shadow" in2="offset" result="edge-shadow-in"></feComposite><feOffset dx="0" dy="1" in="edge-shadow-in" result="edge-shadow-final"></feOffset><feMerge result="out"><feMergeNode in="offset-shadow"></feMergeNode><feMergeNode in="comp"></feMergeNode><feMergeNode in="edge-shadow-final"></feMergeNode><feMergeNode in="SourceGraphic"></feMergeNode></feMerge></filter></defs><g filter="url(#editing-shiny)"><g transform="translate(-48.0332407951355, 95.71999740600586)"><path d="M5.71 0L-0.73 0L9.41-36.96L21.11-36.96L23.69-15.85L34.10-36.96L43.90-36.96L44.91-9.30L44.91-9.30Q45.14-3.81 47.82-2.13L47.82-2.13L47.82-2.13Q47.21-1.01 45.42 0.06L45.42 0.06L45.42 0.06Q43.62 1.12 41.24 1.12L41.24 1.12L41.24 1.12Q38.86 1.12 37.46 0.45L37.46 0.45L37.46 0.45Q36.06-0.22 35.28-1.34L35.28-1.34L35.28-1.34Q33.88-3.36 33.88-7.22L33.88-7.22L33.88-24.53L22.85 0L15.90 0L11.98-25.14L5.71 0ZM68.21-2.35L68.21-2.35L68.21-2.35Q65.52 1.12 58.86 1.12L58.86 1.12L58.86 1.12Q55.38 1.12 52.86-0.98L52.86-0.98L52.86-0.98Q50.34-3.08 50.34-6.10L50.34-6.10L50.34-6.10Q50.34-7.78 50.51-8.62L50.51-8.62L54.26-28.56L65.63-29.68L61.54-8.06L61.54-8.06Q61.32-6.83 61.32-6.10L61.32-6.10L61.32-6.10Q61.32-2.86 63.28-2.86L63.28-2.86L63.28-2.86Q65.46-2.86 67.03-5.82L67.03-5.82L67.03-5.82Q67.54-6.78 67.76-8.01L67.76-8.01L71.74-28.56L82.77-29.68L78.62-7.84L78.62-7.84Q78.46-7 78.46-6.10L78.46-6.10L78.46-6.10Q78.46-5.21 78.96-4.23L78.96-4.23L78.96-4.23Q79.46-3.25 81.09-3.02L81.09-3.02L81.09-3.02Q80.75-1.68 79.58-0.78L79.58-0.78L79.58-0.78Q77.11 1.12 74.45 1.12L74.45 1.12L74.45 1.12Q71.79 1.12 70.22 0.17L70.22 0.17L70.22 0.17Q68.66-0.78 68.21-2.35ZM113.96-6.22L113.96-6.22L113.96-6.22Q113.96-3.75 116.48-3.02L116.48-3.02L116.48-3.02Q115.86-0.95 113.46 0.17L113.46 0.17L113.46 0.17Q111.44 1.12 109.23 1.12L109.23 1.12L109.23 1.12Q107.02 1.12 105.87 0.53L105.87 0.53L105.87 0.53Q104.72-0.06 104.10-1.01L104.10-1.01L104.10-1.01Q103.10-2.46 103.10-5.21L103.10-5.21L103.10-5.21Q103.10-6.83 103.99-11.31L103.99-11.31L104.78-15.57L104.78-15.57Q105.73-20.44 105.73-22.23L105.73-22.23L105.73-22.23Q105.73-25.37 103.99-25.37L103.99-25.37L103.99-25.37Q101.81-25.37 100.41-22.18L100.41-22.18L100.41-22.18Q99.85-20.94 99.46-19.10L99.46-19.10L95.65 0L84.39 1.12L92.29-39.20L103.54-40.32L103.10-38.08L103.10-38.08Q101.53-29.46 100.18-26.54L100.18-26.54L100.18-26.54Q103.32-29.68 109.09-29.68L109.09-29.68L109.09-29.68Q115.19-29.68 116.31-25.65L116.31-25.65L116.31-25.65Q116.70-24.36 116.70-23.24L116.70-23.24L116.70-23.24Q116.70-22.12 116.62-21.25L116.62-21.25L116.62-21.25Q116.54-20.38 116.26-18.82L116.26-18.82L115.53-14.78L114.24-8.46L114.24-8.46Q113.96-7.17 113.96-6.22ZM123.45-1.68L123.45-1.68L123.45-1.68Q122.14-3.14 121.55-5.43L121.55-5.43L121.55-5.43Q120.96-7.73 120.96-11.48L120.96-11.48L120.96-11.48Q120.96-15.23 122.25-18.65L122.25-18.65L122.25-18.65Q123.54-22.06 125.89-24.53L125.89-24.53L125.89-24.53Q130.70-29.68 138.66-29.68L138.66-29.68L138.66-29.68Q141.51-29.68 143.58-28.73L143.58-28.73L153.16-29.68L149.02-7.84L149.02-7.84Q148.85-7.17 148.85-5.94L148.85-5.94L148.85-5.94Q148.85-4.70 149.60-3.92L149.60-3.92L149.60-3.92Q150.36-3.14 151.48-3.02L151.48-3.02L151.48-3.02Q150.92-1.12 148.88 0L148.88 0L148.88 0Q146.83 1.12 144.54 1.12L144.54 1.12L144.54 1.12Q142.24 1.12 140.70 0.25L140.70 0.25L140.70 0.25Q139.16-0.62 138.71-2.07L138.71-2.07L138.71-2.07Q137.82-0.67 135.91 0.22L135.91 0.22L135.91 0.22Q134.01 1.12 131.46 1.12L131.46 1.12L131.46 1.12Q128.91 1.12 126.84 0.45L126.84 0.45L126.84 0.45Q124.77-0.22 123.45-1.68ZM135.27-24.42L135.27-24.42L135.27-24.42Q134.62-23.41 134.06-21.70L134.06-21.70L134.06-21.70Q133.50-19.99 132.58-15.43L132.58-15.43L132.58-15.43Q131.66-10.86 131.66-7.62L131.66-7.62L131.66-7.62Q131.66-4.37 132.16-3.42L132.16-3.42L132.16-3.42Q132.66-2.46 133.56-2.46L133.56-2.46L133.56-2.46Q135.35-2.46 136.67-4.17L136.67-4.17L136.67-4.17Q137.98-5.88 138.49-8.90L138.49-8.90L141.46-25.31L141.46-25.31Q140.28-26.32 138.91-26.32L138.91-26.32L138.91-26.32Q137.54-26.32 136.72-25.87L136.72-25.87L136.72-25.87Q135.91-25.42 135.27-24.42ZM196.50 1.12L196.50 1.12L196.50 1.12Q189.73 1.12 189.73-4.14L189.73-4.14L189.73-4.14Q189.73-6.44 190.71-10.89L190.71-10.89L190.71-10.89Q191.69-15.34 192.02-17.14L192.02-17.14L192.02-17.14Q192.81-21.22 192.81-22.51L192.81-22.51L192.81-22.51Q192.81-25.37 190.68-25.37L190.68-25.37L190.68-25.37Q189.28-25.37 187.94-23.44L187.94-23.44L187.94-23.44Q186.59-21.50 185.98-17.64L185.98-17.64L182.50 0L171.58 1.12L174.61-14.11L174.61-14.11Q175.11-16.63 175.56-19.49L175.56-19.49L175.56-19.49Q176.01-22.34 176.01-22.79L176.01-22.79L176.01-22.79Q176.01-25.37 174.10-25.37L174.10-25.37L174.10-25.37Q172.82-25.37 171.42-23.46L171.42-23.46L171.42-23.46Q170.02-21.56 169.23-17.64L169.23-17.64L165.82 0L154.78 1.12L160.66-28.56L169.79-29.68L168.84-24.02L168.84-24.02Q170.30-27.05 172.98-28.36L172.98-28.36L172.98-28.36Q175.67-29.68 179.87-29.68L179.87-29.68L179.87-29.68Q182.28-29.68 183.85-28.50L183.85-28.50L183.85-28.50Q185.42-27.33 185.92-25.42L185.92-25.42L185.92-25.42Q186.87-27.38 189.31-28.53L189.31-28.53L189.31-28.53Q191.74-29.68 194.74-29.68L194.74-29.68L194.74-29.68Q197.74-29.68 199.22-29.04L199.22-29.04L199.22-29.04Q200.70-28.39 201.60-27.33L201.60-27.33L201.60-27.33Q203.11-25.37 203.11-21.78L203.11-21.78L203.11-21.78Q203.11-18.26 201.60-10.92L201.60-10.92L201.60-10.92Q200.82-7.34 200.82-6.02L200.82-6.02L200.82-6.02Q200.82-4.70 201.57-3.92L201.57-3.92L201.57-3.92Q202.33-3.14 203.45-3.02L203.45-3.02L203.45-3.02Q202.89-1.12 200.96 0L200.96 0L200.96 0Q199.02 1.12 196.50 1.12ZM248.08 1.12L248.08 1.12L248.08 1.12Q241.30 1.12 241.30-4.14L241.30-4.14L241.30-4.14Q241.30-6.44 242.28-10.89L242.28-10.89L242.28-10.89Q243.26-15.34 243.60-17.14L243.60-17.14L243.60-17.14Q244.38-21.22 244.38-22.51L244.38-22.51L244.38-22.51Q244.38-25.37 242.26-25.37L242.26-25.37L242.26-25.37Q240.86-25.37 239.51-23.44L239.51-23.44L239.51-23.44Q238.17-21.50 237.55-17.64L237.55-17.64L234.08 0L223.16 1.12L226.18-14.11L226.18-14.11Q226.69-16.63 227.14-19.49L227.14-19.49L227.14-19.49Q227.58-22.34 227.58-22.79L227.58-22.79L227.58-22.79Q227.58-25.37 225.68-25.37L225.68-25.37L225.68-25.37Q224.39-25.37 222.99-23.46L222.99-23.46L222.99-23.46Q221.59-21.56 220.81-17.64L220.81-17.64L217.39 0L206.36 1.12L212.24-28.56L221.37-29.68L220.42-24.02L220.42-24.02Q221.87-27.05 224.56-28.36L224.56-28.36L224.56-28.36Q227.25-29.68 231.45-29.68L231.45-29.68L231.45-29.68Q233.86-29.68 235.42-28.50L235.42-28.50L235.42-28.50Q236.99-27.33 237.50-25.42L237.50-25.42L237.50-25.42Q238.45-27.38 240.88-28.53L240.88-28.53L240.88-28.53Q243.32-29.68 246.32-29.68L246.32-29.68L246.32-29.68Q249.31-29.68 250.80-29.04L250.80-29.04L250.80-29.04Q252.28-28.39 253.18-27.33L253.18-27.33L253.18-27.33Q254.69-25.37 254.69-21.78L254.69-21.78L254.69-21.78Q254.69-18.26 253.18-10.92L253.18-10.92L253.18-10.92Q252.39-7.34 252.39-6.02L252.39-6.02L252.39-6.02Q252.39-4.70 253.15-3.92L253.15-3.92L253.15-3.92Q253.90-3.14 255.02-3.02L255.02-3.02L255.02-3.02Q254.46-1.12 252.53 0L252.53 0L252.53 0Q250.60 1.12 248.08 1.12ZM261.77-1.68L261.77-1.68L261.77-1.68Q260.46-3.14 259.87-5.43L259.87-5.43L259.87-5.43Q259.28-7.73 259.28-11.48L259.28-11.48L259.28-11.48Q259.28-15.23 260.57-18.65L260.57-18.65L260.57-18.65Q261.86-22.06 264.21-24.53L264.21-24.53L264.21-24.53Q269.02-29.68 276.98-29.68L276.98-29.68L276.98-29.68Q279.83-29.68 281.90-28.73L281.90-28.73L291.48-29.68L287.34-7.84L287.34-7.84Q287.17-7.17 287.17-5.94L287.17-5.94L287.17-5.94Q287.17-4.70 287.92-3.92L287.92-3.92L287.92-3.92Q288.68-3.14 289.80-3.02L289.80-3.02L289.80-3.02Q289.24-1.12 287.20 0L287.20 0L287.20 0Q285.15 1.12 282.86 1.12L282.86 1.12L282.86 1.12Q280.56 1.12 279.02 0.25L279.02 0.25L279.02 0.25Q277.48-0.62 277.03-2.07L277.03-2.07L277.03-2.07Q276.14-0.67 274.23 0.22L274.23 0.22L274.23 0.22Q272.33 1.12 269.78 1.12L269.78 1.12L269.78 1.12Q267.23 1.12 265.16 0.45L265.16 0.45L265.16 0.45Q263.09-0.22 261.77-1.68ZM273.59-24.42L273.59-24.42L273.59-24.42Q272.94-23.41 272.38-21.70L272.38-21.70L272.38-21.70Q271.82-19.99 270.90-15.43L270.90-15.43L270.90-15.43Q269.98-10.86 269.98-7.62L269.98-7.62L269.98-7.62Q269.98-4.37 270.48-3.42L270.48-3.42L270.48-3.42Q270.98-2.46 271.88-2.46L271.88-2.46L271.88-2.46Q273.67-2.46 274.99-4.17L274.99-4.17L274.99-4.17Q276.30-5.88 276.81-8.90L276.81-8.90L279.78-25.31L279.78-25.31Q278.60-26.32 277.23-26.32L277.23-26.32L277.23-26.32Q275.86-26.32 275.04-25.87L275.04-25.87L275.04-25.87Q274.23-25.42 273.59-24.42ZM311.92-29.68L311.92-29.68L311.92-29.68Q313.94-29.68 315.50-29.23L315.50-29.23L315.50-29.23Q315.56-29.46 315.67-30.07L315.67-30.07L315.95-31.81L315.95-31.81Q316.18-32.93 316.51-34.78L316.51-34.78L317.41-39.20L328.55-40.32L322.34-7.84L322.34-7.84Q322.28-7.50 322.28-6.94L322.28-6.94L322.28-6.05L322.28-6.05Q322.28-4.82 322.90-3.89L322.90-3.89L322.90-3.89Q323.51-2.97 324.52-2.97L324.52-2.97L324.52-2.97Q323.40-0.34 319.98 0.78L319.98 0.78L319.98 0.78Q318.81 1.12 317.16 1.12L317.16 1.12L317.16 1.12Q315.50 1.12 313.99 0.25L313.99 0.25L313.99 0.25Q312.48-0.62 312.03-2.07L312.03-2.07L312.03-2.07Q311.14-0.62 309.34 0.25L309.34 0.25L309.34 0.25Q307.55 1.12 304.95 1.12L304.95 1.12L304.95 1.12Q302.34 1.12 300.19 0.45L300.19 0.45L300.19 0.45Q298.03-0.22 296.69-1.68L296.69-1.68L296.69-1.68Q294.22-4.54 294.22-11.03L294.22-11.03L294.22-11.03Q294.22-19.43 299.15-24.53L299.15-24.53L299.15-24.53Q304.08-29.68 311.92-29.68ZM311.53-26.32L311.53-26.32L311.53-26.32Q309.46-26.32 308.34-24.08L308.34-24.08L308.34-24.08Q307.22-21.84 306.07-16.30L306.07-16.30L306.07-16.30Q304.92-10.75 304.92-5.77L304.92-5.77L304.92-5.77Q304.92-2.35 306.94-2.35L306.94-2.35L306.94-2.35Q308.73-2.35 309.99-4.14L309.99-4.14L309.99-4.14Q311.25-5.94 311.75-8.90L311.75-8.90L314.78-25.31L314.78-25.31Q313.60-26.32 311.53-26.32ZM365.40 1.12L365.40 1.12L365.40 1.12Q358.23 1.12 357.56-9.07L357.56-9.07L347.93-9.07L347.93-9.07Q346.81-6.50 346.02-4.26L346.02-4.26L344.57 0L336.73 0L354.37-36.96L366.41-36.96L368.76-9.74L368.76-9.74Q369.32-3.86 371.56-2.13L371.56-2.13L371.56-2.13Q369.94 1.12 365.40 1.12ZM352.74-20.27L349.66-13.16L357.39-13.16L356.72-27.55L356.72-29.06L352.74-20.27ZM374.08-2.69L374.08-2.69L381.02-39.20L392.39-40.32L390.66-31.75L390.66-31.75Q390.04-29.12 389.26-27.27L389.26-27.27L389.26-27.27Q390.49-28.84 393.18-29.46L393.18-29.46L393.18-29.46Q393.96-29.68 394.91-29.68L394.91-29.68L394.91-29.68Q400.12-29.68 402.98-26.52L402.98-26.52L402.98-26.52Q405.83-23.35 405.83-17.25L405.83-17.25L405.83-17.25Q405.83-9.30 401.30-4.31L401.30-4.31L401.30-4.31Q396.42 1.12 387.58 1.12L387.58 1.12L387.58 1.12Q381.47 1.12 376.88-0.90L376.88-0.90L376.88-0.90Q375.26-1.62 374.08-2.69ZM388.30-19.60L385.34-3.19L385.34-3.19Q386.51-2.18 387.97-2.18L387.97-2.18L387.97-2.18Q389.42-2.18 390.26-2.74L390.26-2.74L390.26-2.74Q391.10-3.30 391.72-4.42L391.72-4.42L391.72-4.42Q393.40-7.45 394.74-16.69L394.74-16.69L394.74-16.69Q395.14-19.32 395.14-21.95L395.14-21.95L395.14-21.95Q395.14-24.58 394.55-25.42L394.55-25.42L394.55-25.42Q393.96-26.26 392.84-26.26L392.84-26.26L392.84-26.26Q389.42-26.26 388.30-19.60L388.30-19.60ZM426.83-29.68L426.83-29.68L426.83-29.68Q428.85-29.68 430.42-29.23L430.42-29.23L430.42-29.23Q430.47-29.46 430.58-30.07L430.58-30.07L430.86-31.81L430.86-31.81Q431.09-32.93 431.42-34.78L431.42-34.78L432.32-39.20L443.46-40.32L437.25-7.84L437.25-7.84Q437.19-7.50 437.19-6.94L437.19-6.94L437.19-6.05L437.19-6.05Q437.19-4.82 437.81-3.89L437.81-3.89L437.81-3.89Q438.42-2.97 439.43-2.97L439.43-2.97L439.43-2.97Q438.31-0.34 434.90 0.78L434.90 0.78L434.90 0.78Q433.72 1.12 432.07 1.12L432.07 1.12L432.07 1.12Q430.42 1.12 428.90 0.25L428.90 0.25L428.90 0.25Q427.39-0.62 426.94-2.07L426.94-2.07L426.94-2.07Q426.05-0.62 424.26 0.25L424.26 0.25L424.26 0.25Q422.46 1.12 419.86 1.12L419.86 1.12L419.86 1.12Q417.26 1.12 415.10 0.45L415.10 0.45L415.10 0.45Q412.94-0.22 411.60-1.68L411.60-1.68L411.60-1.68Q409.14-4.54 409.14-11.03L409.14-11.03L409.14-11.03Q409.14-19.43 414.06-24.53L414.06-24.53L414.06-24.53Q418.99-29.68 426.83-29.68ZM426.44-26.32L426.44-26.32L426.44-26.32Q424.37-26.32 423.25-24.08L423.25-24.08L423.25-24.08Q422.13-21.84 420.98-16.30L420.98-16.30L420.98-16.30Q419.83-10.75 419.83-5.77L419.83-5.77L419.83-5.77Q419.83-2.35 421.85-2.35L421.85-2.35L421.85-2.35Q423.64-2.35 424.90-4.14L424.90-4.14L424.90-4.14Q426.16-5.94 426.66-8.90L426.66-8.90L429.69-25.31L429.69-25.31Q428.51-26.32 426.44-26.32ZM462.17-2.35L462.17-2.35L462.17-2.35Q459.48 1.12 452.82 1.12L452.82 1.12L452.82 1.12Q449.34 1.12 446.82-0.98L446.82-0.98L446.82-0.98Q444.30-3.08 444.30-6.10L444.30-6.10L444.30-6.10Q444.30-7.78 444.47-8.62L444.47-8.62L448.22-28.56L459.59-29.68L455.50-8.06L455.50-8.06Q455.28-6.83 455.28-6.10L455.28-6.10L455.28-6.10Q455.28-2.86 457.24-2.86L457.24-2.86L457.24-2.86Q459.42-2.86 460.99-5.82L460.99-5.82L460.99-5.82Q461.50-6.78 461.72-8.01L461.72-8.01L465.70-28.56L476.73-29.68L472.58-7.84L472.58-7.84Q472.42-7 472.42-6.10L472.42-6.10L472.42-6.10Q472.42-5.21 472.92-4.23L472.92-4.23L472.92-4.23Q473.42-3.25 475.05-3.02L475.05-3.02L475.05-3.02Q474.71-1.68 473.54-0.78L473.54-0.78L473.54-0.78Q471.07 1.12 468.41 1.12L468.41 1.12L468.41 1.12Q465.75 1.12 464.18 0.17L464.18 0.17L464.18 0.17Q462.62-0.78 462.17-2.35ZM493.14-3.08L493.14-3.08L493.14-3.08Q491.40 1.12 485.86 1.12L485.86 1.12L485.86 1.12Q483.06 1.12 481.26-0.84L481.26-0.84L481.26-0.84Q479.81-2.46 479.81-4.31L479.81-4.31L479.81-4.31Q479.81-8.51 481.77-17.70L481.77-17.70L485.86-39.20L497.22-40.32L491.79-11.98L491.79-11.98Q490.84-7.84 490.84-6.38L490.84-6.38L490.84-6.38Q490.84-3.19 493.14-3.08ZM511.28-3.08L511.28-3.08L511.28-3.08Q509.54 1.12 504.00 1.12L504.00 1.12L504.00 1.12Q501.20 1.12 499.41-0.84L499.41-0.84L499.41-0.84Q497.95-2.46 497.95-4.31L497.95-4.31L497.95-4.31Q497.95-8.51 499.91-17.70L499.91-17.70L504.00-39.20L515.37-40.32L509.94-11.98L509.94-11.98Q508.98-7.84 508.98-6.38L508.98-6.38L508.98-6.38Q508.98-3.19 511.28-3.08ZM518.48-1.68L518.48-1.68L518.48-1.68Q517.16-3.14 516.57-5.43L516.57-5.43L516.57-5.43Q515.98-7.73 515.98-11.48L515.98-11.48L515.98-11.48Q515.98-15.23 517.27-18.65L517.27-18.65L517.27-18.65Q518.56-22.06 520.91-24.53L520.91-24.53L520.91-24.53Q525.73-29.68 533.68-29.68L533.68-29.68L533.68-29.68Q536.54-29.68 538.61-28.73L538.61-28.73L548.18-29.68L544.04-7.84L544.04-7.84Q543.87-7.17 543.87-5.94L543.87-5.94L543.87-5.94Q543.87-4.70 544.63-3.92L544.63-3.92L544.63-3.92Q545.38-3.14 546.50-3.02L546.50-3.02L546.50-3.02Q545.94-1.12 543.90 0L543.90 0L543.90 0Q541.86 1.12 539.56 1.12L539.56 1.12L539.56 1.12Q537.26 1.12 535.72 0.25L535.72 0.25L535.72 0.25Q534.18-0.62 533.74-2.07L533.74-2.07L533.74-2.07Q532.84-0.67 530.94 0.22L530.94 0.22L530.94 0.22Q529.03 1.12 526.48 1.12L526.48 1.12L526.48 1.12Q523.94 1.12 521.86 0.45L521.86 0.45L521.86 0.45Q519.79-0.22 518.48-1.68ZM530.29-24.42L530.29-24.42L530.29-24.42Q529.65-23.41 529.09-21.70L529.09-21.70L529.09-21.70Q528.53-19.99 527.60-15.43L527.60-15.43L527.60-15.43Q526.68-10.86 526.68-7.62L526.68-7.62L526.68-7.62Q526.68-4.37 527.18-3.42L527.18-3.42L527.18-3.42Q527.69-2.46 528.58-2.46L528.58-2.46L528.58-2.46Q530.38-2.46 531.69-4.17L531.69-4.17L531.69-4.17Q533.01-5.88 533.51-8.90L533.51-8.90L536.48-25.31L536.48-25.31Q535.30-26.32 533.93-26.32L533.93-26.32L533.93-26.32Q532.56-26.32 531.75-25.87L531.75-25.87L531.75-25.87Q530.94-25.42 530.29-24.42ZM579.38-6.22L579.38-6.22L579.38-6.22Q579.38-3.75 581.90-3.02L581.90-3.02L581.90-3.02Q581.28-0.95 578.87 0.17L578.87 0.17L578.87 0.17Q576.86 1.12 574.64 1.12L574.64 1.12L574.64 1.12Q572.43 1.12 571.28 0.53L571.28 0.53L571.28 0.53Q570.14-0.06 569.52-1.01L569.52-1.01L569.52-1.01Q568.51-2.46 568.51-5.21L568.51-5.21L568.51-5.21Q568.51-6.83 569.41-11.31L569.41-11.31L570.19-15.57L570.19-15.57Q571.14-20.44 571.14-22.23L571.14-22.23L571.14-22.23Q571.14-25.37 569.41-25.37L569.41-25.37L569.41-25.37Q567.22-25.37 565.82-22.18L565.82-22.18L565.82-22.18Q565.26-20.94 564.87-19.10L564.87-19.10L561.06 0L549.81 1.12L557.70-39.20L568.96-40.32L568.51-38.08L568.51-38.08Q566.94-29.46 565.60-26.54L565.60-26.54L565.60-26.54Q568.74-29.68 574.50-29.68L574.50-29.68L574.50-29.68Q580.61-29.68 581.73-25.65L581.73-25.65L581.73-25.65Q582.12-24.36 582.12-23.24L582.12-23.24L582.12-23.24Q582.12-22.12 582.04-21.25L582.04-21.25L582.04-21.25Q581.95-20.38 581.67-18.82L581.67-18.82L580.94-14.78L579.66-8.46L579.66-8.46Q579.38-7.17 579.38-6.22ZM584.75-3.30L584.75-3.30L584.75-3.30Q584.75-5.43 586.40-6.61L586.40-6.61L586.40-6.61Q588.06-7.78 590.41-7.78L590.41-7.78L590.41-7.78Q592.76-7.78 594.19-6.61L594.19-6.61L594.19-6.61Q595.62-5.43 595.62-3.30L595.62-3.30L595.62-3.30Q595.62-1.18 594.02-0.03L594.02-0.03L594.02-0.03Q592.42 1.12 590.07 1.12L590.07 1.12L590.07 1.12Q587.72 1.12 586.24-0.03L586.24-0.03L586.24-0.03Q584.75-1.18 584.75-3.30Z" fill="url(#editing-shiny-gradient)"></path></g></g><g filter="url(#editing-shiny2)"><g transform="translate(-48.11169767379761, 95.72000122070312)"><path d="M5.71 0L-0.73 0L9.41-36.96L21.11-36.96L23.69-15.85L34.10-36.96L43.90-36.96L44.91-9.30L44.91-9.30Q45.14-3.81 47.82-2.13L47.82-2.13L47.82-2.13Q47.21-1.01 45.42 0.06L45.42 0.06L45.42 0.06Q43.62 1.12 41.24 1.12L41.24 1.12L41.24 1.12Q38.86 1.12 37.46 0.45L37.46 0.45L37.46 0.45Q36.06-0.22 35.28-1.34L35.28-1.34L35.28-1.34Q33.88-3.36 33.88-7.22L33.88-7.22L33.88-24.53L22.85 0L15.90 0L11.98-25.14L5.71 0ZM68.21-2.35L68.21-2.35L68.21-2.35Q65.52 1.12 58.86 1.12L58.86 1.12L58.86 1.12Q55.38 1.12 52.86-0.98L52.86-0.98L52.86-0.98Q50.34-3.08 50.34-6.10L50.34-6.10L50.34-6.10Q50.34-7.78 50.51-8.62L50.51-8.62L54.26-28.56L65.63-29.68L61.54-8.06L61.54-8.06Q61.32-6.83 61.32-6.10L61.32-6.10L61.32-6.10Q61.32-2.86 63.28-2.86L63.28-2.86L63.28-2.86Q65.46-2.86 67.03-5.82L67.03-5.82L67.03-5.82Q67.54-6.78 67.76-8.01L67.76-8.01L71.74-28.56L82.77-29.68L78.62-7.84L78.62-7.84Q78.46-7 78.46-6.10L78.46-6.10L78.46-6.10Q78.46-5.21 78.96-4.23L78.96-4.23L78.96-4.23Q79.46-3.25 81.09-3.02L81.09-3.02L81.09-3.02Q80.75-1.68 79.58-0.78L79.58-0.78L79.58-0.78Q77.11 1.12 74.45 1.12L74.45 1.12L74.45 1.12Q71.79 1.12 70.22 0.17L70.22 0.17L70.22 0.17Q68.66-0.78 68.21-2.35ZM113.96-6.22L113.96-6.22L113.96-6.22Q113.96-3.75 116.48-3.02L116.48-3.02L116.48-3.02Q115.86-0.95 113.46 0.17L113.46 0.17L113.46 0.17Q111.44 1.12 109.23 1.12L109.23 1.12L109.23 1.12Q107.02 1.12 105.87 0.53L105.87 0.53L105.87 0.53Q104.72-0.06 104.10-1.01L104.10-1.01L104.10-1.01Q103.10-2.46 103.10-5.21L103.10-5.21L103.10-5.21Q103.10-6.83 103.99-11.31L103.99-11.31L104.78-15.57L104.78-15.57Q105.73-20.44 105.73-22.23L105.73-22.23L105.73-22.23Q105.73-25.37 103.99-25.37L103.99-25.37L103.99-25.37Q101.81-25.37 100.41-22.18L100.41-22.18L100.41-22.18Q99.85-20.94 99.46-19.10L99.46-19.10L95.65 0L84.39 1.12L92.29-39.20L103.54-40.32L103.10-38.08L103.10-38.08Q101.53-29.46 100.18-26.54L100.18-26.54L100.18-26.54Q103.32-29.68 109.09-29.68L109.09-29.68L109.09-29.68Q115.19-29.68 116.31-25.65L116.31-25.65L116.31-25.65Q116.70-24.36 116.70-23.24L116.70-23.24L116.70-23.24Q116.70-22.12 116.62-21.25L116.62-21.25L116.62-21.25Q116.54-20.38 116.26-18.82L116.26-18.82L115.53-14.78L114.24-8.46L114.24-8.46Q113.96-7.17 113.96-6.22ZM123.45-1.68L123.45-1.68L123.45-1.68Q122.14-3.14 121.55-5.43L121.55-5.43L121.55-5.43Q120.96-7.73 120.96-11.48L120.96-11.48L120.96-11.48Q120.96-15.23 122.25-18.65L122.25-18.65L122.25-18.65Q123.54-22.06 125.89-24.53L125.89-24.53L125.89-24.53Q130.70-29.68 138.66-29.68L138.66-29.68L138.66-29.68Q141.51-29.68 143.58-28.73L143.58-28.73L153.16-29.68L149.02-7.84L149.02-7.84Q148.85-7.17 148.85-5.94L148.85-5.94L148.85-5.94Q148.85-4.70 149.60-3.92L149.60-3.92L149.60-3.92Q150.36-3.14 151.48-3.02L151.48-3.02L151.48-3.02Q150.92-1.12 148.88 0L148.88 0L148.88 0Q146.83 1.12 144.54 1.12L144.54 1.12L144.54 1.12Q142.24 1.12 140.70 0.25L140.70 0.25L140.70 0.25Q139.16-0.62 138.71-2.07L138.71-2.07L138.71-2.07Q137.82-0.67 135.91 0.22L135.91 0.22L135.91 0.22Q134.01 1.12 131.46 1.12L131.46 1.12L131.46 1.12Q128.91 1.12 126.84 0.45L126.84 0.45L126.84 0.45Q124.77-0.22 123.45-1.68ZM135.27-24.42L135.27-24.42L135.27-24.42Q134.62-23.41 134.06-21.70L134.06-21.70L134.06-21.70Q133.50-19.99 132.58-15.43L132.58-15.43L132.58-15.43Q131.66-10.86 131.66-7.62L131.66-7.62L131.66-7.62Q131.66-4.37 132.16-3.42L132.16-3.42L132.16-3.42Q132.66-2.46 133.56-2.46L133.56-2.46L133.56-2.46Q135.35-2.46 136.67-4.17L136.67-4.17L136.67-4.17Q137.98-5.88 138.49-8.90L138.49-8.90L141.46-25.31L141.46-25.31Q140.28-26.32 138.91-26.32L138.91-26.32L138.91-26.32Q137.54-26.32 136.72-25.87L136.72-25.87L136.72-25.87Q135.91-25.42 135.27-24.42ZM196.50 1.12L196.50 1.12L196.50 1.12Q189.73 1.12 189.73-4.14L189.73-4.14L189.73-4.14Q189.73-6.44 190.71-10.89L190.71-10.89L190.71-10.89Q191.69-15.34 192.02-17.14L192.02-17.14L192.02-17.14Q192.81-21.22 192.81-22.51L192.81-22.51L192.81-22.51Q192.81-25.37 190.68-25.37L190.68-25.37L190.68-25.37Q189.28-25.37 187.94-23.44L187.94-23.44L187.94-23.44Q186.59-21.50 185.98-17.64L185.98-17.64L182.50 0L171.58 1.12L174.61-14.11L174.61-14.11Q175.11-16.63 175.56-19.49L175.56-19.49L175.56-19.49Q176.01-22.34 176.01-22.79L176.01-22.79L176.01-22.79Q176.01-25.37 174.10-25.37L174.10-25.37L174.10-25.37Q172.82-25.37 171.42-23.46L171.42-23.46L171.42-23.46Q170.02-21.56 169.23-17.64L169.23-17.64L165.82 0L154.78 1.12L160.66-28.56L169.79-29.68L168.84-24.02L168.84-24.02Q170.30-27.05 172.98-28.36L172.98-28.36L172.98-28.36Q175.67-29.68 179.87-29.68L179.87-29.68L179.87-29.68Q182.28-29.68 183.85-28.50L183.85-28.50L183.85-28.50Q185.42-27.33 185.92-25.42L185.92-25.42L185.92-25.42Q186.87-27.38 189.31-28.53L189.31-28.53L189.31-28.53Q191.74-29.68 194.74-29.68L194.74-29.68L194.74-29.68Q197.74-29.68 199.22-29.04L199.22-29.04L199.22-29.04Q200.70-28.39 201.60-27.33L201.60-27.33L201.60-27.33Q203.11-25.37 203.11-21.78L203.11-21.78L203.11-21.78Q203.11-18.26 201.60-10.92L201.60-10.92L201.60-10.92Q200.82-7.34 200.82-6.02L200.82-6.02L200.82-6.02Q200.82-4.70 201.57-3.92L201.57-3.92L201.57-3.92Q202.33-3.14 203.45-3.02L203.45-3.02L203.45-3.02Q202.89-1.12 200.96 0L200.96 0L200.96 0Q199.02 1.12 196.50 1.12ZM248.08 1.12L248.08 1.12L248.08 1.12Q241.30 1.12 241.30-4.14L241.30-4.14L241.30-4.14Q241.30-6.44 242.28-10.89L242.28-10.89L242.28-10.89Q243.26-15.34 243.60-17.14L243.60-17.14L243.60-17.14Q244.38-21.22 244.38-22.51L244.38-22.51L244.38-22.51Q244.38-25.37 242.26-25.37L242.26-25.37L242.26-25.37Q240.86-25.37 239.51-23.44L239.51-23.44L239.51-23.44Q238.17-21.50 237.55-17.64L237.55-17.64L234.08 0L223.16 1.12L226.18-14.11L226.18-14.11Q226.69-16.63 227.14-19.49L227.14-19.49L227.14-19.49Q227.58-22.34 227.58-22.79L227.58-22.79L227.58-22.79Q227.58-25.37 225.68-25.37L225.68-25.37L225.68-25.37Q224.39-25.37 222.99-23.46L222.99-23.46L222.99-23.46Q221.59-21.56 220.81-17.64L220.81-17.64L217.39 0L206.36 1.12L212.24-28.56L221.37-29.68L220.42-24.02L220.42-24.02Q221.87-27.05 224.56-28.36L224.56-28.36L224.56-28.36Q227.25-29.68 231.45-29.68L231.45-29.68L231.45-29.68Q233.86-29.68 235.42-28.50L235.42-28.50L235.42-28.50Q236.99-27.33 237.50-25.42L237.50-25.42L237.50-25.42Q238.45-27.38 240.88-28.53L240.88-28.53L240.88-28.53Q243.32-29.68 246.32-29.68L246.32-29.68L246.32-29.68Q249.31-29.68 250.80-29.04L250.80-29.04L250.80-29.04Q252.28-28.39 253.18-27.33L253.18-27.33L253.18-27.33Q254.69-25.37 254.69-21.78L254.69-21.78L254.69-21.78Q254.69-18.26 253.18-10.92L253.18-10.92L253.18-10.92Q252.39-7.34 252.39-6.02L252.39-6.02L252.39-6.02Q252.39-4.70 253.15-3.92L253.15-3.92L253.15-3.92Q253.90-3.14 255.02-3.02L255.02-3.02L255.02-3.02Q254.46-1.12 252.53 0L252.53 0L252.53 0Q250.60 1.12 248.08 1.12ZM261.77-1.68L261.77-1.68L261.77-1.68Q260.46-3.14 259.87-5.43L259.87-5.43L259.87-5.43Q259.28-7.73 259.28-11.48L259.28-11.48L259.28-11.48Q259.28-15.23 260.57-18.65L260.57-18.65L260.57-18.65Q261.86-22.06 264.21-24.53L264.21-24.53L264.21-24.53Q269.02-29.68 276.98-29.68L276.98-29.68L276.98-29.68Q279.83-29.68 281.90-28.73L281.90-28.73L291.48-29.68L287.34-7.84L287.34-7.84Q287.17-7.17 287.17-5.94L287.17-5.94L287.17-5.94Q287.17-4.70 287.92-3.92L287.92-3.92L287.92-3.92Q288.68-3.14 289.80-3.02L289.80-3.02L289.80-3.02Q289.24-1.12 287.20 0L287.20 0L287.20 0Q285.15 1.12 282.86 1.12L282.86 1.12L282.86 1.12Q280.56 1.12 279.02 0.25L279.02 0.25L279.02 0.25Q277.48-0.62 277.03-2.07L277.03-2.07L277.03-2.07Q276.14-0.67 274.23 0.22L274.23 0.22L274.23 0.22Q272.33 1.12 269.78 1.12L269.78 1.12L269.78 1.12Q267.23 1.12 265.16 0.45L265.16 0.45L265.16 0.45Q263.09-0.22 261.77-1.68ZM273.59-24.42L273.59-24.42L273.59-24.42Q272.94-23.41 272.38-21.70L272.38-21.70L272.38-21.70Q271.82-19.99 270.90-15.43L270.90-15.43L270.90-15.43Q269.98-10.86 269.98-7.62L269.98-7.62L269.98-7.62Q269.98-4.37 270.48-3.42L270.48-3.42L270.48-3.42Q270.98-2.46 271.88-2.46L271.88-2.46L271.88-2.46Q273.67-2.46 274.99-4.17L274.99-4.17L274.99-4.17Q276.30-5.88 276.81-8.90L276.81-8.90L279.78-25.31L279.78-25.31Q278.60-26.32 277.23-26.32L277.23-26.32L277.23-26.32Q275.86-26.32 275.04-25.87L275.04-25.87L275.04-25.87Q274.23-25.42 273.59-24.42ZM311.92-29.68L311.92-29.68L311.92-29.68Q313.94-29.68 315.50-29.23L315.50-29.23L315.50-29.23Q315.56-29.46 315.67-30.07L315.67-30.07L315.95-31.81L315.95-31.81Q316.18-32.93 316.51-34.78L316.51-34.78L317.41-39.20L328.55-40.32L322.34-7.84L322.34-7.84Q322.28-7.50 322.28-6.94L322.28-6.94L322.28-6.05L322.28-6.05Q322.28-4.82 322.90-3.89L322.90-3.89L322.90-3.89Q323.51-2.97 324.52-2.97L324.52-2.97L324.52-2.97Q323.40-0.34 319.98 0.78L319.98 0.78L319.98 0.78Q318.81 1.12 317.16 1.12L317.16 1.12L317.16 1.12Q315.50 1.12 313.99 0.25L313.99 0.25L313.99 0.25Q312.48-0.62 312.03-2.07L312.03-2.07L312.03-2.07Q311.14-0.62 309.34 0.25L309.34 0.25L309.34 0.25Q307.55 1.12 304.95 1.12L304.95 1.12L304.95 1.12Q302.34 1.12 300.19 0.45L300.19 0.45L300.19 0.45Q298.03-0.22 296.69-1.68L296.69-1.68L296.69-1.68Q294.22-4.54 294.22-11.03L294.22-11.03L294.22-11.03Q294.22-19.43 299.15-24.53L299.15-24.53L299.15-24.53Q304.08-29.68 311.92-29.68ZM311.53-26.32L311.53-26.32L311.53-26.32Q309.46-26.32 308.34-24.08L308.34-24.08L308.34-24.08Q307.22-21.84 306.07-16.30L306.07-16.30L306.07-16.30Q304.92-10.75 304.92-5.77L304.92-5.77L304.92-5.77Q304.92-2.35 306.94-2.35L306.94-2.35L306.94-2.35Q308.73-2.35 309.99-4.14L309.99-4.14L309.99-4.14Q311.25-5.94 311.75-8.90L311.75-8.90L314.78-25.31L314.78-25.31Q313.60-26.32 311.53-26.32ZM365.40 1.12L365.40 1.12L365.40 1.12Q358.23 1.12 357.56-9.07L357.56-9.07L347.93-9.07L347.93-9.07Q346.81-6.50 346.02-4.26L346.02-4.26L344.57 0L336.73 0L354.37-36.96L366.41-36.96L368.76-9.74L368.76-9.74Q369.32-3.86 371.56-2.13L371.56-2.13L371.56-2.13Q369.94 1.12 365.40 1.12ZM352.74-20.27L349.66-13.16L357.39-13.16L356.72-27.55L356.72-29.06L352.74-20.27ZM374.08-2.69L374.08-2.69L381.02-39.20L392.39-40.32L390.66-31.75L390.66-31.75Q390.04-29.12 389.26-27.27L389.26-27.27L389.26-27.27Q390.49-28.84 393.18-29.46L393.18-29.46L393.18-29.46Q393.96-29.68 394.91-29.68L394.91-29.68L394.91-29.68Q400.12-29.68 402.98-26.52L402.98-26.52L402.98-26.52Q405.83-23.35 405.83-17.25L405.83-17.25L405.83-17.25Q405.83-9.30 401.30-4.31L401.30-4.31L401.30-4.31Q396.42 1.12 387.58 1.12L387.58 1.12L387.58 1.12Q381.47 1.12 376.88-0.90L376.88-0.90L376.88-0.90Q375.26-1.62 374.08-2.69ZM388.30-19.60L385.34-3.19L385.34-3.19Q386.51-2.18 387.97-2.18L387.97-2.18L387.97-2.18Q389.42-2.18 390.26-2.74L390.26-2.74L390.26-2.74Q391.10-3.30 391.72-4.42L391.72-4.42L391.72-4.42Q393.40-7.45 394.74-16.69L394.74-16.69L394.74-16.69Q395.14-19.32 395.14-21.95L395.14-21.95L395.14-21.95Q395.14-24.58 394.55-25.42L394.55-25.42L394.55-25.42Q393.96-26.26 392.84-26.26L392.84-26.26L392.84-26.26Q389.42-26.26 388.30-19.60L388.30-19.60ZM426.83-29.68L426.83-29.68L426.83-29.68Q428.85-29.68 430.42-29.23L430.42-29.23L430.42-29.23Q430.47-29.46 430.58-30.07L430.58-30.07L430.86-31.81L430.86-31.81Q431.09-32.93 431.42-34.78L431.42-34.78L432.32-39.20L443.46-40.32L437.25-7.84L437.25-7.84Q437.19-7.50 437.19-6.94L437.19-6.94L437.19-6.05L437.19-6.05Q437.19-4.82 437.81-3.89L437.81-3.89L437.81-3.89Q438.42-2.97 439.43-2.97L439.43-2.97L439.43-2.97Q438.31-0.34 434.90 0.78L434.90 0.78L434.90 0.78Q433.72 1.12 432.07 1.12L432.07 1.12L432.07 1.12Q430.42 1.12 428.90 0.25L428.90 0.25L428.90 0.25Q427.39-0.62 426.94-2.07L426.94-2.07L426.94-2.07Q426.05-0.62 424.26 0.25L424.26 0.25L424.26 0.25Q422.46 1.12 419.86 1.12L419.86 1.12L419.86 1.12Q417.26 1.12 415.10 0.45L415.10 0.45L415.10 0.45Q412.94-0.22 411.60-1.68L411.60-1.68L411.60-1.68Q409.14-4.54 409.14-11.03L409.14-11.03L409.14-11.03Q409.14-19.43 414.06-24.53L414.06-24.53L414.06-24.53Q418.99-29.68 426.83-29.68ZM426.44-26.32L426.44-26.32L426.44-26.32Q424.37-26.32 423.25-24.08L423.25-24.08L423.25-24.08Q422.13-21.84 420.98-16.30L420.98-16.30L420.98-16.30Q419.83-10.75 419.83-5.77L419.83-5.77L419.83-5.77Q419.83-2.35 421.85-2.35L421.85-2.35L421.85-2.35Q423.64-2.35 424.90-4.14L424.90-4.14L424.90-4.14Q426.16-5.94 426.66-8.90L426.66-8.90L429.69-25.31L429.69-25.31Q428.51-26.32 426.44-26.32ZM462.17-2.35L462.17-2.35L462.17-2.35Q459.48 1.12 452.82 1.12L452.82 1.12L452.82 1.12Q449.34 1.12 446.82-0.98L446.82-0.98L446.82-0.98Q444.30-3.08 444.30-6.10L444.30-6.10L444.30-6.10Q444.30-7.78 444.47-8.62L444.47-8.62L448.22-28.56L459.59-29.68L455.50-8.06L455.50-8.06Q455.28-6.83 455.28-6.10L455.28-6.10L455.28-6.10Q455.28-2.86 457.24-2.86L457.24-2.86L457.24-2.86Q459.42-2.86 460.99-5.82L460.99-5.82L460.99-5.82Q461.50-6.78 461.72-8.01L461.72-8.01L465.70-28.56L476.73-29.68L472.58-7.84L472.58-7.84Q472.42-7 472.42-6.10L472.42-6.10L472.42-6.10Q472.42-5.21 472.92-4.23L472.92-4.23L472.92-4.23Q473.42-3.25 475.05-3.02L475.05-3.02L475.05-3.02Q474.71-1.68 473.54-0.78L473.54-0.78L473.54-0.78Q471.07 1.12 468.41 1.12L468.41 1.12L468.41 1.12Q465.75 1.12 464.18 0.17L464.18 0.17L464.18 0.17Q462.62-0.78 462.17-2.35ZM493.14-3.08L493.14-3.08L493.14-3.08Q491.40 1.12 485.86 1.12L485.86 1.12L485.86 1.12Q483.06 1.12 481.26-0.84L481.26-0.84L481.26-0.84Q479.81-2.46 479.81-4.31L479.81-4.31L479.81-4.31Q479.81-8.51 481.77-17.70L481.77-17.70L485.86-39.20L497.22-40.32L491.79-11.98L491.79-11.98Q490.84-7.84 490.84-6.38L490.84-6.38L490.84-6.38Q490.84-3.19 493.14-3.08ZM511.28-3.08L511.28-3.08L511.28-3.08Q509.54 1.12 504.00 1.12L504.00 1.12L504.00 1.12Q501.20 1.12 499.41-0.84L499.41-0.84L499.41-0.84Q497.95-2.46 497.95-4.31L497.95-4.31L497.95-4.31Q497.95-8.51 499.91-17.70L499.91-17.70L504.00-39.20L515.37-40.32L509.94-11.98L509.94-11.98Q508.98-7.84 508.98-6.38L508.98-6.38L508.98-6.38Q508.98-3.19 511.28-3.08ZM518.48-1.68L518.48-1.68L518.48-1.68Q517.16-3.14 516.57-5.43L516.57-5.43L516.57-5.43Q515.98-7.73 515.98-11.48L515.98-11.48L515.98-11.48Q515.98-15.23 517.27-18.65L517.27-18.65L517.27-18.65Q518.56-22.06 520.91-24.53L520.91-24.53L520.91-24.53Q525.73-29.68 533.68-29.68L533.68-29.68L533.68-29.68Q536.54-29.68 538.61-28.73L538.61-28.73L548.18-29.68L544.04-7.84L544.04-7.84Q543.87-7.17 543.87-5.94L543.87-5.94L543.87-5.94Q543.87-4.70 544.63-3.92L544.63-3.92L544.63-3.92Q545.38-3.14 546.50-3.02L546.50-3.02L546.50-3.02Q545.94-1.12 543.90 0L543.90 0L543.90 0Q541.86 1.12 539.56 1.12L539.56 1.12L539.56 1.12Q537.26 1.12 535.72 0.25L535.72 0.25L535.72 0.25Q534.18-0.62 533.74-2.07L533.74-2.07L533.74-2.07Q532.84-0.67 530.94 0.22L530.94 0.22L530.94 0.22Q529.03 1.12 526.48 1.12L526.48 1.12L526.48 1.12Q523.94 1.12 521.86 0.45L521.86 0.45L521.86 0.45Q519.79-0.22 518.48-1.68ZM530.29-24.42L530.29-24.42L530.29-24.42Q529.65-23.41 529.09-21.70L529.09-21.70L529.09-21.70Q528.53-19.99 527.60-15.43L527.60-15.43L527.60-15.43Q526.68-10.86 526.68-7.62L526.68-7.62L526.68-7.62Q526.68-4.37 527.18-3.42L527.18-3.42L527.18-3.42Q527.69-2.46 528.58-2.46L528.58-2.46L528.58-2.46Q530.38-2.46 531.69-4.17L531.69-4.17L531.69-4.17Q533.01-5.88 533.51-8.90L533.51-8.90L536.48-25.31L536.48-25.31Q535.30-26.32 533.93-26.32L533.93-26.32L533.93-26.32Q532.56-26.32 531.75-25.87L531.75-25.87L531.75-25.87Q530.94-25.42 530.29-24.42ZM579.38-6.22L579.38-6.22L579.38-6.22Q579.38-3.75 581.90-3.02L581.90-3.02L581.90-3.02Q581.28-0.95 578.87 0.17L578.87 0.17L578.87 0.17Q576.86 1.12 574.64 1.12L574.64 1.12L574.64 1.12Q572.43 1.12 571.28 0.53L571.28 0.53L571.28 0.53Q570.14-0.06 569.52-1.01L569.52-1.01L569.52-1.01Q568.51-2.46 568.51-5.21L568.51-5.21L568.51-5.21Q568.51-6.83 569.41-11.31L569.41-11.31L570.19-15.57L570.19-15.57Q571.14-20.44 571.14-22.23L571.14-22.23L571.14-22.23Q571.14-25.37 569.41-25.37L569.41-25.37L569.41-25.37Q567.22-25.37 565.82-22.18L565.82-22.18L565.82-22.18Q565.26-20.94 564.87-19.10L564.87-19.10L561.06 0L549.81 1.12L557.70-39.20L568.96-40.32L568.51-38.08L568.51-38.08Q566.94-29.46 565.60-26.54L565.60-26.54L565.60-26.54Q568.74-29.68 574.50-29.68L574.50-29.68L574.50-29.68Q580.61-29.68 581.73-25.65L581.73-25.65L581.73-25.65Q582.12-24.36 582.12-23.24L582.12-23.24L582.12-23.24Q582.12-22.12 582.04-21.25L582.04-21.25L582.04-21.25Q581.95-20.38 581.67-18.82L581.67-18.82L580.94-14.78L579.66-8.46L579.66-8.46Q579.38-7.17 579.38-6.22ZM584.75-3.30L584.75-3.30L584.75-3.30Q584.75-5.43 586.40-6.61L586.40-6.61L586.40-6.61Q588.06-7.78 590.41-7.78L590.41-7.78L590.41-7.78Q592.76-7.78 594.19-6.61L594.19-6.61L594.19-6.61Q595.62-5.43 595.62-3.30L595.62-3.30L595.62-3.30Q595.62-1.18 594.02-0.03L594.02-0.03L594.02-0.03Q592.42 1.12 590.07 1.12L590.07 1.12L590.07 1.12Q587.72 1.12 586.24-0.03L586.24-0.03L586.24-0.03Q584.75-1.18 584.75-3.30Z" fill="url(#editing-shiny-gradient2)"></path></g></g><style>text {
  font-size: 64px;
  font-family: Arial Black;
  dominant-baseline: central;
  text-anchor: middle;
}</style></svg>