<?xml version="1.0" encoding="UTF-8" standalone="no" ?>
<!DOCTYPE svg PUBLIC "-//W3C//DTD SVG 1.1//EN" "http://www.w3.org/Graphics/SVG/1.1/DTD/svg11.dtd">
<svg xmlns="http://www.w3.org/2000/svg" xmlns:xlink="http://www.w3.org/1999/xlink" version="1.1" width="1080" height="1080" viewBox="0 0 1080 1080" xml:space="preserve">
<desc>Created with Fabric.js 5.2.4</desc>
<defs>
</defs>
<g transform="matrix(1 0 0 1 540 540)" id="243e312b-498a-4898-bbfb-f9c521fd0900"  >
<rect style="stroke: none; stroke-width: 1; stroke-dasharray: none; stroke-linecap: butt; stroke-dashoffset: 0; stroke-linejoin: miter; stroke-miterlimit: 4; fill: rgb(255,255,255); fill-rule: nonzero; opacity: 1; visibility: hidden;" vector-effect="non-scaling-stroke"  x="-540" y="-540" rx="0" ry="0" width="1080" height="1080" />
</g>
<g transform="matrix(1 0 0 1 540 540)" id="da80e912-a0dc-41f8-ac20-5ea609d3d644"  >
</g>
<g transform="matrix(1 0 0 1 562 520.51)" style="" id="1c22390f-5aff-488b-b14e-9123f23fba3c"  >
		<text xml:space="preserve" font-family="Alegreya" font-size="78" font-style="normal" font-weight="700" style="stroke: none; stroke-width: 1; stroke-dasharray: none; stroke-linecap: butt; stroke-dashoffset: 0; stroke-linejoin: miter; stroke-miterlimit: 4; fill: rgb(255,255,255); fill-rule: nonzero; opacity: 1; white-space: pre;" ><tspan x="-365.74" y="51.2" >M</tspan><tspan x="-302.97" y="51.2" >u</tspan><tspan x="-261.47" y="51.2" >h</tspan><tspan x="-220.2" y="51.2" >a</tspan><tspan x="-183.49" y="51.2" >m</tspan><tspan x="-119.81" y="51.2" >m</tspan><tspan x="-56.12" y="51.2" >a</tspan><tspan x="-19.41" y="51.2" >d</tspan><tspan x="21.4" y="51.2" style="white-space: pre; "> </tspan><tspan x="34.63" y="51.2" >A</tspan><tspan x="81.67" y="51.2" >b</tspan><tspan x="120.66" y="51.2" >d</tspan><tspan x="161.47" y="51.2" >u</tspan><tspan x="202.97" y="51.2" >l</tspan><tspan x="222.95" y="51.2" >l</tspan><tspan x="242.94" y="51.2" >a</tspan><tspan x="279.65" y="51.2" >h</tspan><tspan x="320.92" y="51.2" style="font-size: 200px; fill: rgb(255,0,0); ">.</tspan></text>
</g>
</svg>